<?xml version="1.0" encoding="UTF-8"?>
<svg id="Warstwa_2" data-name="Warstwa 2" xmlns="http://www.w3.org/2000/svg" xmlns:xlink="http://www.w3.org/1999/xlink" viewBox="0 0 583.08 169.82">
  <defs>
    <style>
      .cls-1 {
        fill: #4db9e9;
      }

      .cls-2 {
        fill: #0169ad;
      }

      .cls-3 {
        fill: url(#Gradient_bez_nazwy_5);
      }

      .cls-4 {
        fill: #393944;
      }

      .cls-5 {
        fill: #d35;
      }

      .cls-6 {
        fill: url(#Gradient_bez_nazwy_3);
      }

      .cls-7 {
        fill: #893181;
      }

      .cls-8 {
        fill: url(#Gradient_bez_nazwy_4);
      }

      .cls-9 {
        fill: #bc2b86;
      }

      .cls-10 {
        fill: #ea8440;
      }

      .cls-11 {
        fill: #75b850;
      }

      .cls-12 {
        fill: #00964d;
      }

      .cls-13 {
        fill: #6e3282;
      }

      .cls-14 {
        fill: #f7ce35;
      }
    </style>
    <linearGradient id="Gradient_bez_nazwy_5" data-name="Gradient bez nazwy 5" x1="81.71" y1="199.31" x2="99.67" y2="180.71" gradientTransform="translate(0 -108)" gradientUnits="userSpaceOnUse">
      <stop offset="0" stop-color="#ca6907"/>
      <stop offset=".52" stop-color="#ca6907"/>
      <stop offset=".92" stop-color="#691e00"/>
    </linearGradient>
    <linearGradient id="Gradient_bez_nazwy_4" data-name="Gradient bez nazwy 4" x1="43.72" y1="259.65" x2="64.54" y2="241.57" gradientTransform="translate(0 -108)" gradientUnits="userSpaceOnUse">
      <stop offset="0" stop-color="#008ec9"/>
      <stop offset=".52" stop-color="#008ec9"/>
      <stop offset=".8" stop-color="#00273a"/>
    </linearGradient>
    <linearGradient id="Gradient_bez_nazwy_3" data-name="Gradient bez nazwy 3" x1="73.44" y1="172.71" x2="59.7" y2="185.6" gradientTransform="translate(0 -108)" gradientUnits="userSpaceOnUse">
      <stop offset="0" stop-color="#de0930"/>
      <stop offset=".52" stop-color="#de0930"/>
      <stop offset=".92" stop-color="#5a0806"/>
    </linearGradient>
  </defs>
  <g id="Warstwa_1-2" data-name="Warstwa 1">
    <g>
      <polygon class="cls-12" points="70.2 30.4 87.7 0 105.3 30.4 70.2 30.4"/>
      <polygon class="cls-14" points="87.7 60.8 105.3 30.4 122.8 60.8 87.7 60.8"/>
      <polygon class="cls-3" points="70.2 91.2 87.7 60.8 105.3 91.2 70.2 91.2"/>
      <polygon class="cls-5" points="35.1 91.2 52.6 60.8 70.2 91.2 35.1 91.2"/>
      <polygon class="cls-7" points="52.6 121.1 70.2 90.7 87.7 121.1 52.6 121.1"/>
      <polygon class="cls-1" points="0 151.5 17.5 121.1 35.1 151.5 0 151.5"/>
      <polygon class="cls-8" points="35.1 151.5 52.6 121.1 70.2 151.5 35.1 151.5"/>
      <polygon class="cls-11" points="105.3 30.4 87.7 60.8 70.2 30.4 105.3 30.4"/>
      <polygon class="cls-10" points="122.8 60.8 105.3 91.2 87.7 60.8 122.8 60.8"/>
      <polygon class="cls-6" points="87.7 60.8 70.2 91.2 52.6 60.8 87.7 60.8"/>
      <polygon class="cls-9" points="70.2 90.7 52.6 121.1 35.1 90.7 70.2 90.7"/>
      <polygon class="cls-13" points="87.7 121.1 70.2 151.5 52.6 121.1 87.7 121.1"/>
      <polygon class="cls-2" points="52.6 121.1 35.1 151.5 17.5 121.1 52.6 121.1"/>
    </g>
    <path class="cls-4" d="M193.95,169.38c-9.75,0-14.78-5.47-14.78-16.11v-55.12h5.76v55.85c0,9.46,6.5,10.49,9.31,10.49s9.31-1.03,9.31-10.49v-55.85h5.17v55.12c.15,10.64-4.88,16.11-14.78,16.11ZM287.92,169.23c-10.05,0-15.07-5.47-15.07-16.11v-39.75c0-10.64,5.02-16.11,15.07-16.11s15.07,5.47,15.07,16.11v39.75c0,10.79-5.02,16.11-15.07,16.11ZM287.92,102c-2.81,0-9.31,1.03-9.31,10.64v41.23c0,9.6,6.5,10.64,9.31,10.64s9.31-1.03,9.31-10.64v-41.23c0-9.6-6.5-10.64-9.31-10.64ZM122.87,169.23c-9.9,0-14.78-5.47-14.78-16.11v-1.63h5.17v2.36c0,9.46,6.5,10.49,9.31,10.49s9.31-1.03,9.31-10.49c0-8.57-5.76-13.89-11.38-18.91-6.21-5.76-12.12-11.08-12.12-21.57s4.88-16.11,14.63-16.11,14.33,5.17,14.48,15.37h-5.17c0-9.31-5.76-10.64-9.16-10.64s-9.16,1.33-9.16,10.64c0,8.57,5.76,13.74,11.38,18.91,6.21,5.76,12.12,11.08,12.12,21.57.15,10.79-4.88,16.11-14.63,16.11ZM257.93,168.35v-70.19h5.76v70.19h-5.76ZM218.33,168.35v-70.19h15.81c10.05,0,14.78,5.02,14.78,15.81v38.57c0,10.79-4.73,15.81-14.78,15.81h-15.81ZM224.09,163.62h9.9c3.4,0,9.16-1.33,9.16-10.49v-39.75c0-9.16-5.76-10.49-9.16-10.49h-9.9v60.73ZM154.79,168.35v-65.46h-12.56v-4.73h30.88v4.73h-12.56v65.46h-5.76Z"/>
    <path class="cls-4" d="M311.94,98.01h17.58c11.08,0,16.7,6.21,16.7,17.58v35.91c0,11.38-5.47,17.58-16.7,17.58h-17.58v-71.07h0ZM323.17,108.06v50.68h6.35c3.55,0,5.76-1.77,5.76-6.94v-36.94c0-5.02-2.07-6.94-5.76-6.94l-6.35.15Z"/>
    <path class="cls-4" d="M364.54,127.86h15.37v10.2h-15.37v20.83h19.21v10.2h-30.44v-70.93h30.44v10.05h-19.21v19.65Z"/>
    <path class="cls-4" d="M405.62,97.12c10.93,0,16.4,6.5,16.4,17.88v2.22h-10.49v-2.96c0-5.02-2.07-6.94-5.62-6.94s-5.62,1.92-5.62,6.94c0,14.63,21.87,17.29,21.87,37.68,0,11.38-5.62,17.88-16.7,17.88s-16.7-6.5-16.7-17.88v-4.29h10.49v5.02c0,5.02,2.22,6.94,5.76,6.94s5.76-1.77,5.76-6.94c0-14.63-21.87-17.29-21.87-37.68.3-11.38,5.91-17.88,16.7-17.88Z"/>
    <path class="cls-4" d="M428.67,98.01h11.23v70.93h-11.23v-70.93Z"/>
    <path class="cls-4" d="M464.58,129.48h15.66v22.46c0,11.38-5.62,17.88-16.7,17.88s-16.7-6.5-16.7-17.88v-36.94c0-11.38,5.62-17.88,16.7-17.88s16.7,6.5,16.7,17.88v6.94h-10.49v-7.68c0-5.02-2.22-6.94-5.76-6.94s-5.76,1.92-5.76,6.94v38.42c0,5.02,2.22,6.94,5.76,6.94s5.76-1.77,5.76-6.94v-13.15h-5.02v-10.05h-.15Z"/>
    <path class="cls-4" d="M497.38,117.51v51.42h-10.05v-70.93h14.04l11.53,42.56v-42.56h9.9v70.93h-11.53l-13.89-51.42Z"/>
    <path class="cls-4" d="M530.78,98.01h11.08v70.93h-11.08v-70.93Z"/>
    <path class="cls-4" d="M549.1,115c0-11.38,5.91-17.88,16.99-17.88s16.99,6.5,16.99,17.88v36.94c0,11.38-5.91,17.88-16.99,17.88s-16.99-6.5-16.99-17.88v-36.94ZM560.18,152.68c0,5.02,2.22,6.94,5.76,6.94s5.76-1.92,5.76-6.94v-38.27c0-5.02-2.22-6.94-5.76-6.94s-5.76,1.92-5.76,6.94v38.27Z"/>
  </g>
</svg>